<svg xmlns="http://www.w3.org/2000/svg" viewBox="0 0 128 128">
  <circle cx="64" cy="64" r="58" fill="#ffffff"/>
  <!-- Sprechblase -->
  <path d="M38 44 h52 a10 10 0 0 1 10 10 v16 a10 10 0 0 1-10 10 H56 l-12 12 v-12 H38 a10 10 0 0 1-10-10 V54 a10 10 0 0 1 10-10 z"
        fill="#E7E0CF" stroke="#628AA3" stroke-width="3.5" stroke-linejoin="round"/>
  <!-- <  /> -->
  <path d="M54 58 L46 64 L54 70" fill="none" stroke="#3E5C7A" stroke-width="6.5" stroke-linecap="round" stroke-linejoin="round"/>
  <path d="M74 58 L82 64 L74 70" fill="none" stroke="#3E5C7A" stroke-width="6.5" stroke-linecap="round" stroke-linejoin="round"/>
  <path d="M66 56 L62 72" stroke="#779EAB" stroke-width="5" stroke-linecap="round"/>
  <!-- Mini-Sternchen -->
  <g transform="translate(92 39) scale(1.5)">
    <path d="M0 -6 l2 4 4 2 -4 2 -2 4 -2 -4 -4 -2 4 -2z" fill="#E6725E"/>
  </g>
</svg>
